<?xml version="1.0" encoding="utf-8"?>
<!-- Generator: Adobe Illustrator 26.1.0, SVG Export Plug-In . SVG Version: 6.00 Build 0)  -->
<svg version="1.1" id="a" xmlns="http://www.w3.org/2000/svg" xmlns:xlink="http://www.w3.org/1999/xlink" x="0px" y="0px"
	 viewBox="0 0 89.2 85.6" style="enable-background:new 0 0 89.2 85.6;" xml:space="preserve">
<style type="text/css">
	.st0{fill:none;stroke:#000000;stroke-width:4;stroke-linecap:round;stroke-miterlimit:10;}
	.st1{fill:none;stroke:#000000;stroke-width:6;stroke-miterlimit:10;}
</style>
<g>
	<path class="st0" d="M38.8,7.8c0,0-7.6,3.6-7.6,7.2s7.6,3.2,7.6,5.6s-5.9,6.7-5.9,6.7"/>
</g>
<g>
	<path class="st0" d="M50.4,7.8c0,0-7.6,3.6-7.6,7.2s7.6,3.2,7.6,5.6s-5.9,6.7-5.9,6.7"/>
</g>
<path d="M46.1,79H33.8C20.1,79,8.9,67.9,8.9,54.2V33c0-1.5,1.2-2.7,2.7-2.7h56.6c1.5,0,2.7,1.2,2.7,2.7v21.2
	C71,67.9,59.8,79,46.1,79z"/>
<path class="st1" d="M67,41.2c0,0,13.9,0.4,13.9,9.8S67,58.8,67,58.8V41.2z"/>
</svg>
