<?xml version="1.0" encoding="utf-8"?>
<!-- Generator: Adobe Illustrator 26.1.0, SVG Export Plug-In . SVG Version: 6.00 Build 0)  -->
<svg version="1.1" id="a" xmlns="http://www.w3.org/2000/svg" xmlns:xlink="http://www.w3.org/1999/xlink" x="0px" y="0px"
	 viewBox="0 0 69 61.9" style="enable-background:new 0 0 69 61.9;" xml:space="preserve">
<style type="text/css">
	.st0{fill:none;stroke:#000000;stroke-width:8;stroke-miterlimit:10;}
</style>
<path class="st0" d="M6.4,4.1h56.2c1.2,0,2.3,1,2.3,2.3v35.1c0,1.2-1,2.3-2.3,2.3H6.4c-1.2,0-2.3-1-2.3-2.3V6.4
	C4.1,5.1,5.1,4.1,6.4,4.1z"/>
<path d="M48,51.5c-0.1-0.3-0.4-0.5-0.7-0.5h-6.4v-7.2h-13V51h-6.3c-0.3,0-0.6,0.2-0.7,0.5L18.2,61c-0.1,0.4,0.2,0.9,0.7,0.9h31
	c0.5,0,0.9-0.5,0.8-0.9L48,51.5z"/>
</svg>
