<?xml version="1.0" encoding="utf-8"?>
<!-- Generator: Adobe Illustrator 26.1.0, SVG Export Plug-In . SVG Version: 6.00 Build 0)  -->
<svg version="1.1" id="a" xmlns="http://www.w3.org/2000/svg" xmlns:xlink="http://www.w3.org/1999/xlink" x="0px" y="0px"
	 viewBox="0 0 82 75" style="enable-background:new 0 0 82 75;" xml:space="preserve">
<path d="M66.2,53.4c-0.3-7.5-6.4-13.6-14-13.6s-13.5,5.8-14,13.2l-16.8-0.2l2-20.6c5.9-2.2,10.1-7.9,10.1-14.6C33.5,9,26.6,2,18.1,2
	S2.7,9.1,2.7,17.7c0,5.4,2.8,10.2,7,13L5.5,59.1c0,0-3.1,13.7,7.3,13.7h66.5V53.6L66.2,53.4z"/>
<path d="M65.2,25c-6,2.2-7.3,4-9,12c-1.7-8-3-9.8-9-12c6-2.2,7.3-4,9-12C57.8,21,59.2,22.8,65.2,25z"/>
</svg>
